<svg xmlns="http://www.w3.org/2000/svg" width="1160" height="700" viewBox="0 0 1160 700" role="img" aria-label="JetBrains AutoGo Lua Debugger redacted screenshot guide">
  <rect width="1160" height="700" fill="#2b2d30"/>
  <rect x="0" y="0" width="1160" height="46" fill="#1e1f22"/>
  <text x="24" y="29" fill="#dfe1e5" font-family="Arial, sans-serif" font-size="16">JetBrains - AutoGo Lua Debugger</text>
  <rect x="0" y="46" width="310" height="654" fill="#25272b"/>
  <rect x="310" y="46" width="850" height="430" fill="#1e1f22"/>
  <rect x="310" y="476" width="850" height="224" fill="#202124"/>
  <text x="26" y="86" fill="#dfe1e5" font-family="Arial, sans-serif" font-size="18">Project</text>
  <text x="46" y="122" fill="#a9b7c6" font-family="Menlo, monospace" font-size="14">[workspace]</text>
  <text x="66" y="154" fill="#a9b7c6" font-family="Menlo, monospace" font-size="14">script/main.glua</text>
  <rect x="330" y="66" width="260" height="32" fill="#303236"/>
  <text x="350" y="88" fill="#dfe1e5" font-family="Arial, sans-serif" font-size="14">main.glua</text>
  <rect x="640" y="64" width="120" height="34" rx="5" fill="#2e7d32"/>
  <text x="662" y="87" fill="#ffffff" font-family="Arial, sans-serif" font-size="14">Debug Lua</text>
  <text x="344" y="142" fill="#7a7e85" font-family="Menlo, monospace" font-size="16">27</text>
  <circle cx="380" cy="136" r="7" fill="#db5860"/>
  <text x="410" y="142" fill="#cf8e6d" font-family="Menlo, monospace" font-size="16">local</text>
  <text x="468" y="142" fill="#56a8f5" font-family="Menlo, monospace" font-size="16">node</text>
  <text x="520" y="142" fill="#bcbec4" font-family="Menlo, monospace" font-size="16">= uiacc.findByText("OK")</text>
  <text x="344" y="178" fill="#7a7e85" font-family="Menlo, monospace" font-size="16">28</text>
  <text x="410" y="178" fill="#cf8e6d" font-family="Menlo, monospace" font-size="16">if</text>
  <text x="438" y="178" fill="#bcbec4" font-family="Menlo, monospace" font-size="16">node then node:click() end</text>
  <rect x="330" y="504" width="360" height="160" fill="#2b2d30" stroke="#4b4d52"/>
  <text x="350" y="532" fill="#dfe1e5" font-family="Arial, sans-serif" font-size="15">Debugger</text>
  <text x="350" y="566" fill="#a9b7c6" font-family="Menlo, monospace" font-size="14">Frame: [workspace]/script/main.glua:27</text>
  <text x="350" y="596" fill="#a9b7c6" font-family="Menlo, monospace" font-size="14">Locals: node = table {...}</text>
  <text x="350" y="626" fill="#a9b7c6" font-family="Menlo, monospace" font-size="14">Device: DEVICE_REDACTED</text>
  <rect x="720" y="504" width="410" height="160" fill="#2b2d30" stroke="#4b4d52"/>
  <text x="740" y="532" fill="#dfe1e5" font-family="Arial, sans-serif" font-size="15">AutoGo Console</text>
  <text x="740" y="566" fill="#a9b7c6" font-family="Menlo, monospace" font-size="14">DAP connected: 127.0.0.1:PORT_REDACTED</text>
  <text x="740" y="596" fill="#a9b7c6" font-family="Menlo, monospace" font-size="14">Breakpoint verified: line 27</text>
  <text x="740" y="626" fill="#a9b7c6" font-family="Menlo, monospace" font-size="14">Remote root: /data/local/tmp/.autogo/...</text>
</svg>
